<?xml version="1.0" encoding="UTF-8" standalone="no"?>
<!-- Created with Inkscape (http://www.inkscape.org/) -->
<svg id="svg2" xmlns:rdf="http://www.w3.org/1999/02/22-rdf-syntax-ns#" xmlns="http://www.w3.org/2000/svg" height="12" width="12" version="1.1" xmlns:cc="http://creativecommons.org/ns#" xmlns:dc="http://purl.org/dc/elements/1.1/">
 <metadata id="metadata7">
  <rdf:RDF>
   <cc:Work rdf:about="">
    <dc:format>image/svg+xml</dc:format>
    <dc:type rdf:resource="http://purl.org/dc/dcmitype/StillImage"/>
    <dc:title/>
    <dc:creator>
     <cc:Agent>
      <dc:title>Andreas Neudecker &lt;zapyon@gmx.net&gt;</dc:title>
     </cc:Agent>
    </dc:creator>
    <dc:source/>
   </cc:Work>
  </rdf:RDF>
 </metadata>
 <g id="layer1" transform="translate(0 -1040.4)" fill="blue">
  <path id="rect2985" d="m1.9688 1043.4c-1.0939 0-1.9688 0.8-1.9688 1.9v5.0935c0 1.0938 0.87492 1.9754 1.9688 1.9687l5.0625-0.031c1.0938 0 1.9687-0.9 1.9687-2v-3.0313h-1v3c0 0.554-0.44601 0.9966-1 1l-5 0.031c-0.55398 0-1-0.446-1-1v-5.031c0-0.554 0.446-1 1-1h3v-1z"/>
  <path id="rect3763" d="m7 1040.4-0.0000048 1h3.3126l-7.1317 7.1514 0.68745 0.6874 7.1316-7.1514 0.000065 3.3126h1l-0.00004-4.0001 0.000075-0.9999z"/>
 </g>
</svg>
