<svg xmlns="http://www.w3.org/2000/svg" xmlns:xlink="http://www.w3.org/1999/xlink" version="1.1" x="0px" y="0px" viewBox="0 0 512 640" enable-background="new 0 0 512 512" xml:space="preserve"><g><path fill="#000000" d="M227.974,151.291c-0.174-20.651,16.659-37.658,37.31-37.831c20.999,0,37.485,16.486,37.485,37.658   c0.173,20.651-16.313,37.658-36.79,38.005C245.328,189.296,228.32,172.289,227.974,151.291z"/><path fill="#000000" d="M319.082,366.132c-0.521,3.124-2.43,6.421-4.686,8.851c-13.709,14.057-30.196,22.386-49.979,22.734   c-8.851,0.174-18.048,0.52-26.552-1.389c-22.56-4.686-35.402-23.949-31.757-46.508c4.338-27.246,9.197-54.144,13.883-81.216   c1.389-8.157,3.124-16.313,4.165-24.47c0.521-2.95,0.174-6.247-0.347-9.023c-1.041-5.553-3.817-7.983-9.197-8.851   c-2.95-0.347-5.901-0.174-8.677-0.867c-3.471-1.041-7.462-2.256-10.239-4.338c-4.859-3.645-3.817-10.759,1.736-13.189   c2.776-1.389,6.247-2.082,9.371-2.082c12.322-0.174,24.816,0,36.964,0h36.964c8.851,0,13.363,4.512,14.578,13.362   c1.214,8.851-1.91,17.181-3.471,25.685c-4.512,25.51-9.372,50.847-13.883,76.183c-1.562,8.677-3.125,17.354-4.512,26.205   c-0.347,2.604-0.174,5.553,0,8.157c1.561,11.279,7.982,15.445,18.742,12.668c3.297-0.867,6.248-2.776,9.372-4.338   c2.95-1.389,5.9-3.297,9.023-4.512C315.957,357.108,320.296,360.579,319.082,366.132z"/><path fill="#000000" d="M81.211,506.594h-2.008c-19.379-0.119-31.276-5.186-36.36-15.507c-1.822-3.711-5.143-13.507,3.305-24.624   l26.946-35.979c3.195-4.118,5.025-6.669,5.754-8.601c-44.359-46.207-68.738-106.572-68.738-170.497   c0-135.637,110.343-245.98,245.98-245.98c135.544,0,245.802,110.343,245.802,245.98c0,135.535-110.259,245.802-245.802,245.802   c-26.624,0-52.757-4.254-77.703-12.643c-1.135,0.254-1.864,0.559-2.237,0.78c-9.846,4.61-18.591,8.084-27.853,11.168   c-3.237,1.017-6.237,1.796-9.236,2.576l-4.161,1.102C119.249,504.442,101.2,506.594,81.211,506.594z M256.089,40.114   c-116.495,0-211.272,94.777-211.272,211.272c0,56.214,21.964,109.233,61.84,149.296l2.101,2.11l1.28,2.678   c3.991,8.414,4.652,17.71,1.898,26.895c-2.712,7.855-6.787,13.422-11.092,18.964L85.6,471.852c15.117-0.271,28.59-2,40.114-5.152   l4.669-1.237c2.398-0.61,4.805-1.22,7.203-1.983c7.753-2.593,15.303-5.584,22.819-9.075c4.288-2.423,10.406-4.177,17.625-4.796   l5.406-0.059l2.813,1c22.336,7.914,45.842,11.931,69.839,11.931c116.393,0,211.094-94.693,211.094-211.094   C467.183,134.891,372.482,40.114,256.089,40.114z"/></g></svg>