<svg xmlns="http://www.w3.org/2000/svg" xmlns:xlink="http://www.w3.org/1999/xlink" version="1.1" x="0px" y="0px" viewBox="0 0 32 32" enable-background="new 0 0 32 32" xml:space="preserve"><g><g><path d="M25.187,26.997h-4.796c-1.001,0-1.815-0.814-1.815-1.815v-5.92h-5.141v5.92    c0,1.001-0.814,1.815-1.815,1.815H6.823c-1.001,0-1.815-0.814-1.815-1.815V14.389c0-0.554,0.249-1.07,0.681-1.417l9.182-7.347    c0.668-0.534,1.601-0.534,2.268,0l9.183,7.347c0.433,0.347,0.681,0.863,0.681,1.417v10.792    C27.002,26.182,26.188,26.997,25.187,26.997z M20.575,24.997h4.427V14.478l-8.998-7.2l-8.998,7.2v10.519h4.427v-5.92    c0-1.001,0.814-1.815,1.815-1.815h5.511c1.001,0,1.815,0.814,1.815,1.815V24.997z"/></g></g><text x="0" y="47" fill="#000000" font-size="5px" font-weight="bold" font-family="'Helvetica Neue', Helvetica, Arial-Unicode, Arial, Sans-serif">Created by Arvelio2001</text><text x="0" y="52" fill="#000000" font-size="5px" font-weight="bold" font-family="'Helvetica Neue', Helvetica, Arial-Unicode, Arial, Sans-serif">from the Noun Project</text></svg>