<svg xmlns="http://www.w3.org/2000/svg" data-name="Layer 1" viewBox="0 0 100 125" x="0px" y="0px"><title>A</title><path d="M85.84039,37.24847a39.11307,39.11307,0,0,0-10.17608-26.424L78.05817,8.4306a2.00963,2.00963,0,0,0-2.842-2.842l-8.21552,8.21552A31.20545,31.20545,0,0,0,22.96,57.84467l-8.21185,8.21185a2.00963,2.00963,0,0,0,2.842,2.842l2.38434-2.38434A39.09928,39.09928,0,0,0,44.39136,76.631V90.98029H25.11908a2.00986,2.00986,0,0,0,0,4.01971H67.68433a2.00986,2.00986,0,0,0,0-4.01971H48.41107V76.63068A39.48708,39.48708,0,0,0,85.84039,37.24847ZM46.40173,10.032A27.21387,27.21387,0,1,1,19.18787,37.24585,27.24459,27.24459,0,0,1,46.40173,10.032ZM25.802,60.68677A31.20542,31.20542,0,0,0,69.84265,16.64612l2.97278-2.97278A35.406,35.406,0,0,1,22.82361,63.66516Z"/></svg>